<?xml version="1.0" encoding="UTF-8"?>
<!DOCTYPE svg PUBLIC "-//W3C//DTD SVG 1.1//EN" "http://www.w3.org/Graphics/SVG/1.1/DTD/svg11.dtd">
<!-- Creator: CorelDRAW X7 -->
<svg xmlns="http://www.w3.org/2000/svg" xml:space="preserve" width="100%" height="100%" version="1.1" style="shape-rendering:geometricPrecision; text-rendering:geometricPrecision; image-rendering:optimizeQuality; fill-rule:evenodd; clip-rule:evenodd"
viewBox="0 0 11633 9144"
 xmlns:xlink="http://www.w3.org/1999/xlink"
 enable-background="new 0 0 24 24"
 data-name="Layer 1">
 <defs>
  <style type="text/css">
   <![CDATA[
    .str0 {stroke:#535461;stroke-width:52.92}
    .fil14 {fill:none}
    .fil3 {fill:#535461}
    .fil12 {fill:#6394E2}
    .fil11 {fill:#68739D}
    .fil18 {fill:#96A2D0}
    .fil2 {fill:#AEBEE1}
    .fil13 {fill:#B96B6B}
    .fil1 {fill:#D6D6E3}
    .fil8 {fill:#D9DFE8}
    .fil5 {fill:#E3EDF9}
    .fil17 {fill:#F37291}
    .fil7 {fill:#F8B9BF}
    .fil16 {fill:#FA595F}
    .fil9 {fill:#FFAE00}
    .fil10 {fill:black;fill-opacity:0.011765}
    .fil4 {fill:black;fill-opacity:0.101961}
    .fil0 {fill:#FFAE00;fill-opacity:0.101961}
    .fil15 {fill:url(#id0)}
    .fil6 {fill:url(#id1)}
   ]]>
  </style>
  <linearGradient id="id0" gradientUnits="userSpaceOnUse" x1="3041.04" y1="7265.07" x2="3041.04" y2="2283.5">
   <stop offset="0" style="stop-opacity:0.25098; stop-color:gray"/>
   <stop offset="0.541176" style="stop-opacity:0.121569; stop-color:gray"/>
   <stop offset="1" style="stop-opacity:0.101961; stop-color:gray"/>
  </linearGradient>
  <linearGradient id="id1" gradientUnits="userSpaceOnUse" xlink:href="#id0" x1="9220.04" y1="7306.14" x2="9220.04" y2="2088.93">
  </linearGradient>
 </defs>
 <g id="Layer_x0020_1">
  <metadata id="CorelCorpID_0Corel-Layer"/>
  <g id="_3152353299136">
   <path class="fil0" d="M10936 5174c-429,645 -320,1541 -104,2251 72,238 155,489 106,751 -60,322 -303,569 -553,707 -454,253 -982,232 -1373,-53 -339,-247 -569,-669 -914,-904 -577,-391 -1348,-182 -2013,155 -471,238 -988,541 -1434,351 -314,-134 -517,-495 -618,-884 -49,-188 -81,-393 -185,-538 -62,-86 -145,-145 -232,-193 -785,-444 -1822,-116 -2583,-615 -513,-336 -818,-1013 -932,-1730 -114,-718 -58,-1482 18,-2233 54,-534 132,-1105 430,-1533 315,-453 826,-646 1276,-591 451,54 848,323 1192,647 432,405 824,919 1372,1059 373,96 774,6 1166,-41 655,-79 1304,-35 1949,17 617,49 1239,108 1818,319 411,150 731,448 1115,646 251,129 530,152 765,322 290,209 545,589 445,1057 -96,446 -483,691 -711,1033z"/>
   <polygon class="fil0" points="9180,3410 9604,3410 9604,2767 9180,2767 "/>
   <polygon class="fil0" points="9221,3348 9563,3348 9563,2830 9221,2830 "/>
   <polygon class="fil0" points="8318,2964 8970,2964 8970,2321 8318,2321 "/>
   <polygon class="fil0" points="8381,2901 8907,2901 8907,2384 8381,2384 "/>
   <polygon class="fil0" points="707,1418 2700,1418 2700,1365 707,1365 "/>
   <polygon class="fil0" points="707,1677 2700,1677 2700,1624 707,1624 "/>
   <rect class="fil1" x="4068" y="4804" width="204" height="2275"/>
   <path class="fil2" d="M10218 5043l0 -2098c0,-122 99,-221 221,-221 0,0 0,0 0,0l0 0c121,1 220,99 220,221l0 2539c0,122 -99,221 -221,221l-1366 0c-122,0 -221,-99 -221,-221l1 0c-1,-121 98,-220 220,-220l926 0c121,0 220,-99 220,-221l0 0z"/>
   <path class="fil3" d="M10218 5043l0 -2098c0,-122 99,-221 221,-221 0,0 0,0 0,0l0 0c121,1 220,99 220,221l0 2539c0,122 -99,221 -221,221l-1366 0c-122,0 -221,-99 -221,-221l1 0c-1,-121 98,-220 220,-220l926 0c121,0 220,-99 220,-221l0 0z"/>
   <path class="fil1" d="M8852 5473c6,-117 103,-209 220,-209 0,0 0,0 0,0l926 0c121,0 220,-99 220,-221l0 -2098c0,0 0,0 0,0 0,-118 93,-215 210,-221l0 2749 -1576 0z"/>
   <path class="fil2" d="M2034 5114l0 -2098c0,0 0,0 0,0 0,-122 -98,-221 -220,-221l0 0c-121,0 -220,99 -220,221l0 2539c0,0 0,1 0,1 0,122 99,220 220,220 0,0 0,0 0,0l1366 0c122,0 221,-98 221,-220l0 0c0,-122 -99,-221 -221,-221l-925 0c0,0 0,0 0,0 -122,0 -221,-99 -221,-220 0,-1 0,-1 0,-1l0 0z"/>
   <path class="fil3" d="M2034 5114l0 -2098c0,0 0,0 0,0 0,-122 -98,-221 -220,-221l0 0c-121,0 -220,99 -220,221l0 2539c0,0 0,1 0,1 0,122 99,220 220,220 0,0 0,0 0,0l1366 0c122,0 221,-98 221,-220l0 0c0,-122 -99,-221 -221,-221l-925 0c0,0 0,0 0,0 -122,0 -221,-99 -221,-220 0,-1 0,-1 0,-1l0 0z"/>
   <path class="fil1" d="M3401 5543c-7,-117 -103,-208 -221,-208 0,0 0,0 0,0l-925 0c0,0 0,0 0,0 -122,0 -221,-99 -221,-221 0,0 0,0 0,0l0 -2098c0,-118 -92,-215 -209,-221l0 2748 1576 0z"/>
   <rect class="fil1" x="8096" y="4804" width="204" height="2328"/>
   <polygon class="fil4" points="4068,4973 4272,4973 4272,4804 4068,4804 "/>
   <polygon class="fil4" points="8096,4973 8299,4973 8299,4804 8096,4804 "/>
   <path class="fil4" d="M4795 3419c-3,36 -7,72 -12,109l-29 0 0 -109 41 0z"/>
   <path class="fil3" d="M5630 4551c0,37 -26,67 -59,67l-622 0 0 -64 517 0c23,0 37,-27 25,-49l-468 -953c-7,-14 -21,-23 -37,-24l-232 0 0 -109 293 0c11,0 21,7 26,17l537 1038c12,24 19,50 20,77l0 0z"/>
   <path class="fil3" d="M4488 4378l-8 15 -80 -53 247 -1895 63 0c0,0 3,9 7,26 42,163 251,1091 -229,1907z"/>
   <path class="fil4" d="M4717 2471l-229 1907 -8 15 -80 -53 247 -1895 63 0c0,0 3,9 7,26z"/>
   <rect class="fil1" transform="matrix(0.0466601 -0.389568 0.389568 0.0466601 4328.29 4376.83)" width="5008" height="384"/>
   <path class="fil5" d="M3816 4552c0,10 -8,18 -18,18l-26 0c1,-9 8,-16 17,-16l27 0c8,0 15,6 17,14 0,0 0,0 -1,0 -8,0 -16,-7 -16,-16l0 0z"/>
   <path class="fil5" d="M3896 4552c0,10 -8,18 -18,18l-27 0c4,-3 8,-5 13,-5 0,0 0,0 0,0l26 0c0,0 0,0 1,0 6,0 13,4 16,10 -7,-3 -12,-9 -12,-17 0,-2 0,-4 1,-6l0 0z"/>
   <path class="fil5" d="M3967 4552c-1,10 -8,18 -18,18l-27 0c3,-6 9,-10 16,-11l27 0c0,0 0,0 0,0 10,0 18,8 18,18 0,0 0,0 0,0l-16 -25z"/>
   <path class="fil5" d="M4046 4552c0,10 -8,18 -18,18l-26 0c-10,0 -18,-8 -18,-18 0,-4 1,-7 3,-10l2 -2c4,-4 8,-6 13,-6 0,0 0,0 0,0l26 0c5,0 10,3 13,6 3,3 5,8 5,12l0 0z"/>
   <path class="fil4" d="M3816 4548c0,10 -8,18 -18,18l-27 0c0,-1 0,-1 0,-1 0,-1 0,-1 0,-1l45 -16z"/>
   <path class="fil4" d="M3894 4545c0,10 -8,18 -17,18l-27 0c0,-2 0,-4 1,-5l43 -13z"/>
   <path class="fil4" d="M3964 4543c0,9 -8,17 -18,17l-26 0c0,0 0,0 0,0 0,-2 0,-5 1,-7l43 -10z"/>
   <path class="fil4" d="M4046 4552c0,10 -8,18 -18,18l-26 0c-10,0 -18,-8 -18,-18 0,-4 1,-7 3,-10l54 -2c3,3 5,8 5,12 0,0 0,0 0,0l0 0z"/>
   <path class="fil1" d="M4205 4623l-513 0 0 -23c0,0 0,0 0,-1 0,-21 17,-39 39,-39l411 -15c1,0 2,0 3,0 33,0 61,28 61,61l-1 17z"/>
   <path class="fil3" d="M6738 4551c0,37 26,67 59,67l622 0 0 -64 -518 0c-22,0 -36,-27 -25,-49l469 -953c7,-14 21,-23 36,-24l232 0 0 -109 -292 0c-11,1 -21,7 -26,16l-537 1039c-12,24 -19,50 -20,77l0 0z"/>
   <path class="fil3" d="M7879 4378l9 15 79 -53 -246 -1895 -63 0c0,0 -3,9 -7,26 -43,163 -252,1091 228,1907z"/>
   <path class="fil4" d="M7651 2471l228 1907 9 15 79 -53 -246 -1895 -63 0c0,0 -3,9 -7,26z"/>
   <rect class="fil1" transform="matrix(0.389568 -0.0466601 0.0466601 0.389568 7656.44 2443.47)" width="384" height="5008"/>
   <path class="fil5" d="M8552 4552c0,10 8,18 17,18l27 0c-1,-9 -9,-16 -18,-16l-26 0c-8,0 -15,6 -17,14 0,0 0,0 0,0 9,0 16,-7 17,-16z"/>
   <path class="fil5" d="M8472 4552c0,10 8,18 18,18l26 0c-3,-3 -7,-5 -12,-5 0,0 0,0 0,0l-15 0c0,0 0,0 0,0 -7,0 -13,4 -16,10 2,-3 4,-7 4,-11 0,-4 -2,-9 -5,-12l0 0z"/>
   <path class="fil5" d="M8401 4552c0,10 8,18 18,18l27 0c-3,-6 -10,-10 -17,-11l-26 0c0,0 0,0 0,0 -10,0 -18,8 -18,18 0,0 0,0 0,0l16 -25z"/>
   <path class="fil5" d="M8321 4552c1,10 8,18 18,18l27 0c10,0 18,-8 18,-18 0,-4 -2,-7 -4,-10l-2 -2c-3,-4 -7,-6 -12,-6 0,0 0,0 0,0l-27 0c-5,0 -9,3 -13,6 -3,3 -5,8 -5,12l0 0z"/>
   <path class="fil4" d="M8552 4548c0,10 8,18 18,18l26 0c0,-1 1,-1 1,-1 0,-1 -1,-1 -1,-1l-44 -16z"/>
   <path class="fil4" d="M8473 4545c0,10 8,18 18,18l27 0c0,-2 -1,-4 -1,-5l-44 -13z"/>
   <path class="fil4" d="M8404 4543c0,9 8,17 18,17l26 0c0,0 0,0 0,0 0,-2 0,-5 -1,-7l-43 -10z"/>
   <path class="fil4" d="M8321 4552c1,10 8,18 18,18l27 0c10,0 18,-8 18,-18 0,-4 -2,-7 -4,-10l-54 -2c-3,3 -5,8 -5,12 0,0 0,0 0,0z"/>
   <path class="fil1" d="M8162 4623l514 0 0 -23c0,0 0,0 0,-1 0,-21 -18,-39 -39,-39l-412 -15c0,0 -1,0 -2,0 -34,0 -61,28 -61,61l0 17z"/>
   <path class="fil6" d="M10409 4974c239,-406 152,-1225 162,-1241 9,-14 -24,-399 -244,-494 -40,-78 -79,-167 -79,-167 -4,3 -8,7 -13,9 -2,-5 -3,-9 -5,-14 -3,-8 -5,-17 -8,-25 5,-3 10,-7 14,-11 18,-12 27,-33 35,-52l64 -154c29,-69 58,-138 74,-212 8,-40 12,-80 12,-121 0,-72 -13,-143 -38,-210 -15,-40 -36,-80 -72,-104 -71,-49 -170,-15 -252,-44 -26,-9 -51,-25 -77,-34 -58,-21 -123,-10 -179,16 -56,26 -101,67 -149,104 -24,18 -63,37 -91,62 -27,21 -48,47 -44,81 4,39 45,63 83,72 7,1 13,2 20,4 19,36 36,74 50,113 2,5 4,11 6,16 -63,18 -113,33 -122,41 -30,25 32,241 32,241 -16,20 -32,43 -48,68 -124,188 -204,404 -230,629 -11,82 -24,166 -41,245l-516 472 -1 19 -18 -5 0 0 -56 -13 -2 12 -9 -4c-138,-65 -371,-148 -529,-62 -167,89 193,209 424,272 -77,4 -150,22 -208,65 -167,126 306,191 530,214l9 1 0 5 77 7 18 2 2 27c0,0 111,18 259,40 -169,43 -378,72 -523,89 -154,18 -285,125 -326,275 -8,23 -11,48 -11,72 0,20 2,40 7,60 43,150 -10,1260 -22,1499l-273 157c0,0 -426,52 -142,152 25,9 51,16 78,21 -37,24 -34,55 76,94 284,99 943,-4 943,-4 0,0 -14,-117 -38,-214l8 0c0,0 -69,-253 35,-381 103,-128 -18,-1100 -18,-1100 0,0 181,-75 722,-80 436,112 648,-289 645,-496 -1,-4 -1,-9 -1,-14z"/>
   <path class="fil7" d="M8700 4275l-47 187c0,0 -41,-10 -103,-26 -211,-54 -656,-185 -478,-282 154,-83 380,-2 515,61 49,23 86,44 102,54 7,4 11,6 11,6z"/>
   <path class="fil4" d="M8687 4328l-34 134c0,0 -41,-9 -103,-25l37 -221c49,23 86,44 103,54l-3 58z"/>
   <polygon class="fil8" points="8687,4475 8558,4443 8598,4207 8701,4233 "/>
   <polygon class="fil4" points="8687,4475 8631,4462 8652,4221 8701,4233 "/>
   <path class="fil9" d="M9931 3497c0,0 -248,-143 -358,267 -110,410 -120,599 -120,599l-782 -156 -25 286c0,0 836,270 941,250 105,-20 446,-592 446,-592 0,0 311,-443 -102,-654z"/>
   <g>
    <path class="fil4" d="M8700 4275l-47 187c0,0 -41,-10 -103,-26 -211,-54 -656,-185 -478,-282 154,-83 380,-2 515,61 49,23 86,44 102,54 7,4 11,6 11,6z"/>
    <path class="fil10" d="M8687 4328l-34 134c0,0 -41,-9 -103,-25l37 -221c49,23 86,44 103,54l-3 58z"/>
    <polygon class="fil4" points="8687,4475 8558,4443 8598,4207 8701,4233 "/>
    <polygon class="fil10" points="8687,4475 8631,4462 8652,4221 8701,4233 "/>
    <path class="fil10" d="M9931 3507c0,0 -248,-143 -358,267 -110,411 -120,600 -120,600l-782 -157 -25 286c0,0 836,270 941,250 105,-19 446,-591 446,-591 0,0 311,-444 -102,-655z"/>
   </g>
   <path class="fil11" d="M8356 6676l-319 184c0,0 -414,51 -138,147 275,97 916,-4 916,-4 0,0 -36,-288 -86,-328 -49,-40 -373,1 -373,1z"/>
   <path class="fil12" d="M9600 4614c0,0 -159,83 -441,154 -165,42 -372,71 -515,88 -46,-37 -102,-57 -161,-57 -140,0 -254,114 -254,255 0,76 35,149 94,197 47,164 -23,1500 -23,1500l485 45c0,0 -66,-246 34,-370 100,-124 -17,-1068 -17,-1068 0,0 176,-73 701,-78 486,125 686,-408 611,-557 -75,-149 -514,-109 -514,-109z"/>
   <g>
    <path class="fil4" d="M8356 6676l-319 184c0,0 -414,51 -138,147 275,97 916,-4 916,-4 0,0 -36,-288 -86,-328 -49,-40 -373,1 -373,1z"/>
    <path class="fil10" d="M9600 4614c0,0 -159,83 -441,154 -165,42 -372,71 -515,88 -46,-37 -102,-57 -161,-57 -140,0 -254,114 -254,255 0,76 35,149 94,197 47,164 -23,1500 -23,1500l485 45c0,0 -66,-246 34,-370 100,-124 -17,-1068 -17,-1068 0,0 176,-73 701,-78 486,125 686,-408 611,-557 -75,-149 -514,-109 -514,-109z"/>
   </g>
   <path class="fil11" d="M8506 6788l-320 184c0,0 -413,50 -138,147 276,97 916,-4 916,-4 0,0 -35,-288 -85,-328 -50,-40 -373,1 -373,1z"/>
   <path class="fil12" d="M9652 5392c-525,4 -701,77 -701,77 0,0 118,945 17,1068 -100,124 -34,371 -34,371l-485 -45c0,0 1,-16 2,-44 12,-232 63,-1310 21,-1456 42,-145 167,-251 317,-267 143,-17 350,-46 515,-88l8 -2c277,-71 433,-153 433,-153 0,0 439,-39 514,110 11,23 16,47 16,72 0,1 0,2 0,3 7,73 -199,462 -623,354z"/>
   <path class="fil7" d="M8921 4508l-18 192c0,0 -43,-3 -106,-10 -217,-22 -676,-86 -514,-208 140,-104 376,-59 518,-16 52,15 92,30 110,38 6,2 10,4 10,4z"/>
   <path class="fil7" d="M10210 3252c0,0 -65,51 -144,107 -87,20 -188,36 -261,46 26,-83 10,-176 -19,-258 -32,-85 -76,-166 -131,-240l440 -137c-35,88 -19,187 10,274 26,73 61,144 105,208l0 0z"/>
   <path class="fil4" d="M8916 4562l-13 138c0,0 -43,-3 -106,-10l4 -224c52,15 92,30 110,38l5 58z"/>
   <polygon class="fil8" points="8938,4708 8806,4696 8810,4456 8916,4466 "/>
   <path class="fil4" d="M10210 3252c0,0 -65,51 -144,107 -87,20 -188,36 -261,46 26,-83 10,-176 -19,-258 107,-31 261,-71 319,-104 26,74 62,144 105,209l0 0z"/>
   <path class="fil8" d="M10122 3048c0,0 74,167 120,243 47,75 -538,145 -538,145 0,0 -60,-210 -31,-234 29,-24 401,-105 449,-154z"/>
   <path class="fil4" d="M10279 4910c-24,43 -55,83 -91,118 -258,245 -681,-11 -872,-150 278,-71 433,-153 433,-153 0,0 439,-39 515,110 10,23 15,48 15,73 0,1 0,1 0,2l0 0z"/>
   <path class="fil9" d="M10190 5010c-293,279 -799,-90 -936,-199 -22,-17 -34,-28 -34,-28 54,-51 101,-158 139,-288 34,-125 60,-254 75,-382 26,-218 103,-428 223,-611 16,-24 31,-46 47,-66 111,-141 297,-230 297,-230 393,-115 446,468 435,485 -10,16 95,995 -246,1319z"/>
   <path class="fil4" d="M10228 4214c0,0 -253,616 -354,652 -57,20 -366,-18 -620,-55 -22,-17 -34,-28 -34,-28 54,-51 101,-158 139,-288l326 15c0,0 -18,-188 30,-610 48,-423 314,-318 314,-318 439,147 199,632 199,632z"/>
   <polygon class="fil4" points="8938,4708 8881,4703 8866,4461 8916,4466 "/>
   <path class="fil9" d="M10022 3555c0,0 -266,-105 -314,317 -48,423 -29,611 -29,611l-797 -38 18 286c0,0 867,142 968,107 101,-35 354,-652 354,-652 0,0 240,-484 -200,-631z"/>
   <path class="fil4" d="M10040 2930c-12,-63 54,-63 78,-122l-439 137c23,7 46,11 70,14 186,139 218,36 291,-29z"/>
   <circle class="fil7" transform="matrix(0.0361055 -0.390688 0.390688 0.0361055 9839.83 2688.79)" r="925"/>
   <path class="fil4" d="M9589 2423c5,38 45,61 82,69 37,9 77,9 109,29 52,32 66,103 60,164 -4,35 -9,77 19,97 18,4 36,5 54,5 12,0 24,0 36,-2 17,-2 35,-6 51,-1 28,8 44,36 49,64 5,28 2,57 7,85 6,1 12,2 18,2 10,0 21,-3 31,-7 19,-10 29,-32 38,-53l62 -149c28,-67 56,-135 71,-206 8,-39 12,-78 12,-118 0,-69 -12,-138 -36,-203 -15,-39 -36,-79 -70,-102 -69,-47 -166,-15 -245,-42 -26,-9 -49,-24 -75,-33 -57,-20 -120,-10 -174,16 -54,25 -98,65 -145,101 126,185 38,219 46,284z"/>
   <path class="fil13" d="M9589 2423c5,38 44,61 82,69 37,9 77,9 109,29 52,32 66,103 60,164 -4,35 -9,77 19,97 18,4 36,5 54,5 12,0 24,0 36,-2 17,-2 35,-6 51,-1 28,8 44,36 49,64 5,28 2,57 7,85 6,1 12,2 18,2 10,0 21,-3 30,-7 20,-10 30,-32 39,-53l62 -149c28,-67 56,-135 71,-206 8,-39 12,-78 12,-118 0,-69 -12,-138 -37,-203 -14,-39 -35,-79 -69,-102 -69,-47 -166,-15 -245,-42 -26,-9 -49,-24 -75,-33 -57,-20 -120,-10 -174,16 -54,25 -98,65 -145,101 126,185 38,219 46,284z"/>
   <path class="fil4" d="M9792 3787c0,0 -139,538 -277,588 -138,50 -77,64 -77,64m354 -652l0 0 0 0z"/>
   <rect class="fil1" x="9648" y="5759" width="151" height="990"/>
   <polygon class="fil4" points="9648,5832 9798,5832 9798,5759 9648,5759 "/>
   <path class="fil1" d="M9346 5754l0 20c0,27 22,49 49,49l656 0c27,0 49,-22 49,-49l0 -20c0,-27 -22,-49 -49,-49l-656 0c-27,0 -49,22 -49,49l0 0z"/>
   <path class="fil4" d="M9358 5723l731 0c-10,-11 -23,-18 -38,-18 0,0 0,0 0,0l-656 0c-14,0 -28,7 -37,18l0 0z"/>
   <path class="fil1" d="M9162 6695l1123 0c31,0 57,26 57,57l0 4c0,32 -26,57 -57,57l-1123 0c-32,0 -58,-25 -58,-57l0 -4c0,-31 26,-57 58,-57z"/>
   <circle class="fil3" cx="10272" cy="6889" r="75"/>
   <circle class="fil3" cx="9174" cy="6889" r="75"/>
   <circle class="fil3" cx="9723" cy="6889" r="75"/>
   <path class="fil1" d="M9651 4543l1008 0c48,0 88,39 88,88l0 7c0,48 -40,88 -88,88l-1008 0c-48,0 -88,-40 -88,-88l0 -7c0,-49 40,-88 88,-88z"/>
   <path class="fil4" d="M9798 6695c0,0 -59,58 -150,0m150 0l0 0 0 0z"/>
   <path class="fil4" d="M10747 4636l0 15c0,41 -34,75 -75,75l-1034 0c-41,0 -75,-34 -75,-75l0 -15 1184 0z"/>
   <rect class="fil1" x="8574" y="4804" width="204" height="2594"/>
   <polygon class="fil4" points="8574,4973 8777,4973 8777,4804 8574,4804 "/>
   <rect class="fil1" x="2454" y="5830" width="151" height="990"/>
   <polygon class="fil4" points="2454,5903 2605,5903 2605,5830 2454,5830 "/>
   <path class="fil1" d="M2906 5825l0 20c0,27 -22,49 -49,49l-655 0c-27,0 -49,-22 -49,-49l0 -20c0,-27 22,-49 49,-49 0,0 0,0 0,0l655 0c27,0 49,22 49,49l0 0z"/>
   <path class="fil4" d="M2895 5794l-731 0c9,-11 23,-18 37,-18 0,0 0,0 1,0l655 0c1,0 1,0 1,0 14,0 28,7 37,18l0 0z"/>
   <path class="fil1" d="M1968 6766l1123 0c32,0 57,25 57,57l0 4c0,32 -25,57 -57,57l-1123 0c-32,0 -57,-25 -57,-57l0 -4c0,-32 25,-57 57,-57z"/>
   <circle class="fil3" cx="1981" cy="6960" r="75"/>
   <circle class="fil3" cx="3078" cy="6960" r="75"/>
   <circle class="fil3" cx="2529" cy="6960" r="75"/>
   <path class="fil4" d="M2454 6766c0,0 59,58 151,0m-151 0l0 0 0 0z"/>
   <path class="fil14 str0" d="M6297 3785c0,0 -169,-307 -107,-574 9,-40 14,-81 14,-123 0,-73 -15,-145 -44,-211 -22,-50 -48,-98 -79,-143"/>
   <path class="fil9" d="M6118 2565c9,41 -38,173 -38,173 0,0 -99,-100 -107,-141 -3,-7 -4,-14 -4,-21 0,-41 34,-75 75,-75 37,0 69,28 74,64l0 0z"/>
   <path class="fil9" d="M6288 2762c-15,39 -126,124 -126,124 0,0 -28,-138 -14,-176 10,-31 39,-52 71,-52 41,0 75,34 75,75 0,10 -2,20 -6,29l0 0z"/>
   <path class="fil9" d="M6366 3144c-32,26 -171,44 -171,44 0,0 45,-134 77,-160 14,-11 30,-17 48,-17 41,0 74,34 74,75 0,23 -10,44 -28,58l0 0z"/>
   <path class="fil9" d="M6361 3447c-27,31 -162,72 -162,72 0,0 22,-139 49,-170 14,-18 36,-28 58,-28 41,0 75,34 75,75 0,19 -8,37 -20,51l0 0z"/>
   <path class="fil9" d="M6010 2928c35,21 176,20 176,20 0,0 -62,-126 -97,-148 -12,-8 -27,-12 -41,-12 -41,0 -75,34 -75,75 0,26 14,51 37,64l0 1z"/>
   <path class="fil9" d="M6008 3282c40,10 174,-33 174,-33 0,0 -97,-102 -137,-112 -5,-1 -10,-1 -15,-1 -42,0 -75,33 -75,74 0,33 22,62 53,72l0 0z"/>
   <path class="fil9" d="M6053 3626c38,17 177,-3 177,-3 0,0 -78,-116 -116,-133 -9,-5 -20,-7 -30,-7 -42,0 -75,34 -75,75 0,29 17,56 44,68l0 0z"/>
   <path class="fil9" d="M6118 2565c9,41 -38,173 -38,173 0,0 -99,-100 -107,-141 -3,-7 -4,-14 -4,-21 0,-41 34,-75 75,-75 37,0 69,28 74,64l0 0z"/>
   <path class="fil9" d="M6288 2762c-15,39 -126,124 -126,124 0,0 -28,-138 -14,-176 10,-31 39,-52 71,-52 41,0 75,34 75,75 0,10 -2,20 -6,29l0 0z"/>
   <path class="fil9" d="M6366 3144c-32,26 -171,44 -171,44 0,0 45,-134 77,-160 14,-11 30,-17 48,-17 41,0 74,34 74,75 0,23 -10,44 -28,58l0 0z"/>
   <path class="fil9" d="M6361 3447c-27,31 -162,72 -162,72 0,0 22,-139 49,-170 14,-18 36,-28 58,-28 41,0 75,34 75,75 0,19 -8,37 -20,51l0 0z"/>
   <path class="fil9" d="M6010 2928c35,21 176,20 176,20 0,0 -62,-126 -97,-148 -12,-8 -27,-12 -41,-12 -41,0 -75,34 -75,75 0,26 14,51 37,64l0 1z"/>
   <path class="fil9" d="M6008 3282c40,10 174,-33 174,-33 0,0 -97,-102 -137,-112 -5,-1 -10,-1 -15,-1 -42,0 -75,33 -75,74 0,33 22,62 53,72l0 0z"/>
   <path class="fil9" d="M6053 3626c38,17 177,-3 177,-3 0,0 -78,-116 -116,-133 -9,-5 -20,-7 -30,-7 -42,0 -75,34 -75,75 0,29 17,56 44,68l0 0z"/>
   <path class="fil9" d="M6228 4637l0 0c0,0 0,0 0,0 -98,0 -178,-79 -178,-178 0,-3 0,-7 1,-11l49 -788 256 0 50 788c0,4 0,8 0,11 0,99 -79,178 -178,178 0,0 0,0 0,0z"/>
   <polygon class="fil0" points="904,1366 1049,1366 1049,764 904,764 "/>
   <polygon class="fil0" points="1091,1366 1236,1366 1236,764 1091,764 "/>
   <polygon class="fil0" points="1278,1366 1423,1366 1423,764 1278,764 "/>
   <polygon class="fil0" points="1464,1366 1610,1366 1610,764 1464,764 "/>
   <polygon class="fil0" points="1838,1366 1984,1366 1984,764 1838,764 "/>
   <polygon class="fil0" points="2025,1366 2170,1366 2170,764 2025,764 "/>
   <polygon class="fil0" points="904,909 1049,909 1049,878 904,878 "/>
   <polygon class="fil0" points="904,1283 1049,1283 1049,1252 904,1252 "/>
   <polygon class="fil0" points="1091,909 1236,909 1236,878 1091,878 "/>
   <polygon class="fil0" points="1091,1283 1236,1283 1236,1252 1091,1252 "/>
   <polygon class="fil0" points="1278,909 1423,909 1423,878 1278,878 "/>
   <polygon class="fil0" points="1278,1283 1423,1283 1423,1252 1278,1252 "/>
   <polygon class="fil0" points="1464,909 1610,909 1610,878 1464,878 "/>
   <polygon class="fil0" points="1464,1283 1610,1283 1610,1252 1464,1252 "/>
   <polygon class="fil0" points="1651,909 1797,909 1797,878 1651,878 "/>
   <polygon class="fil0" points="1651,1283 1797,1283 1797,1252 1651,1252 "/>
   <polygon class="fil0" points="1838,909 1984,909 1984,878 1838,878 "/>
   <polygon class="fil0" points="1838,1283 1984,1283 1984,1252 1838,1252 "/>
   <polygon class="fil0" points="2025,909 2170,909 2170,878 2025,878 "/>
   <polygon class="fil0" points="2025,1283 2170,1283 2170,1252 2025,1252 "/>
   <polygon class="fil0" points="1651,1366 1797,1366 1797,764 1651,764 "/>
   <polygon class="fil0" points="2428,1369 2560,1308 2307,761 2175,822 "/>
   <polygon class="fil0" points="2236,954 2368,893 2355,865 2223,926 "/>
   <polygon class="fil0" points="2393,1293 2525,1232 2512,1204 2380,1265 "/>
   <path class="fil15" d="M4076 6972l-264 -168c-1,-237 -5,-1337 44,-1484 7,-23 10,-46 10,-70 0,-20 -2,-41 -8,-61 -34,-150 -159,-262 -310,-286 -143,-23 -349,-62 -514,-111 147,-15 258,-28 258,-28l3 -28 95 -4 0 -4 9 -1c222,-13 693,-57 533,-188 -55,-45 -127,-67 -203,-74 231,-52 593,-155 432,-251 -153,-91 -388,-19 -528,39l-8 4 -2 -13 -56 11 0 0 -17 4 -1 -18 -784 121c-6,-90 -17,-180 -32,-268 18,-117 99,-288 71,-379 -34,-106 -171,-141 -229,-237 -15,-25 -30,-49 -45,-69 165,-41 281,-189 281,-359 0,-22 -2,-45 -6,-67 49,22 110,24 141,-18l-15 -5c1,-2 3,-3 4,-5 -30,-12 -62,-25 -86,-46 -6,-7 -11,-14 -15,-22 -14,-29 -13,-64 -26,-94 -24,-24 -55,-42 -88,-50 -38,-11 -77,-16 -113,-31 -72,-84 -178,-132 -289,-132 -40,0 -79,6 -117,18l-13 4c3,-37 19,-73 45,-101 -2,3 -5,5 -8,7 -34,32 -53,77 -53,123 0,44 16,85 46,117l3 2c-61,-21 -104,-75 -112,-138 0,3 0,7 0,10 63,-29 103,-92 103,-161 0,-98 -80,-177 -178,-177 -25,0 -51,5 -74,16l4 0 -2 3c28,30 67,48 108,50 7,8 15,16 23,24 -23,55 -50,108 -83,158 -224,64 -244,445 -236,459 10,17 -33,615 133,1338 -7,206 114,548 541,458 582,642 757,724 757,724 0,0 -50,930 22,1065 45,85 13,209 -21,297 -12,22 -22,45 -30,69 -10,22 -18,35 -18,35l8 0c-28,95 -47,210 -47,210 0,0 648,132 933,46 111,-34 115,-64 79,-90 27,-4 53,-10 79,-17 285,-86 -134,-157 -134,-157z"/>
   <path class="fil16" d="M2666 2558c0,207 -168,374 -374,374 -207,0 -374,-167 -374,-374 0,-206 167,-374 374,-374 206,0 374,168 374,374l0 0z"/>
   <path class="fil7" d="M3507 4314l38 189c0,0 42,-7 105,-21 213,-45 663,-156 489,-260 -150,-90 -380,-19 -517,38 -50,20 -88,40 -105,49 -6,3 -10,5 -10,5z"/>
   <path class="fil4" d="M3518 4367l27 136c0,0 42,-7 105,-21l-28 -222c-50,20 -88,40 -105,49l1 58z"/>
   <polygon class="fil8" points="3512,4515 3642,4489 3612,4251 3508,4272 "/>
   <polygon class="fil4" points="3512,4515 3568,4504 3557,4262 3508,4272 "/>
   <path class="fil9" d="M2312 3482c0,0 253,-132 345,283 92,415 94,604 94,604l788 -122 12 287c0,0 -847,233 -951,208 -104,-24 -420,-611 -420,-611 0,0 -290,-456 132,-649z"/>
   <g>
    <path class="fil10" d="M3507 4314l38 189c0,0 42,-7 105,-21 213,-45 663,-156 489,-260 -150,-90 -380,-19 -517,38 -50,20 -88,40 -105,49 -6,3 -10,5 -10,5z"/>
    <path class="fil10" d="M3518 4367l27 136c0,0 42,-7 105,-21l-28 -222c-50,20 -88,40 -105,49l1 58z"/>
    <polygon class="fil10" points="3512,4515 3642,4489 3612,4251 3508,4272 "/>
    <polygon class="fil10" points="3512,4515 3568,4504 3557,4262 3508,4272 "/>
    <path class="fil10" d="M2332 3503c0,0 254,-132 346,283 92,415 93,604 93,604l788 -122 13 286c0,0 -847,233 -951,209 -105,-24 -421,-611 -421,-611 0,0 -289,-456 132,-649z"/>
   </g>
   <path class="fil17" d="M3745 6728l311 198c0,0 411,68 131,153 -279,84 -914,-45 -914,-45 0,0 48,-286 99,-324 52,-37 373,18 373,18z"/>
   <path class="fil18" d="M2593 4613c0,0 155,90 434,174 163,49 369,87 511,110 5,20 7,40 7,61 0,23 -3,46 -9,68 250,442 261,1780 261,1780l-486 23c0,0 77,-243 -18,-371 -95,-129 64,-1067 64,-1067 0,0 -172,-80 -697,-108 -491,104 -667,-438 -586,-583 82,-146 519,-87 519,-87z"/>
   <g>
    <path class="fil10" d="M3745 6728l311 198c0,0 411,68 131,153 -279,84 -914,-45 -914,-45 0,0 48,-286 99,-324 52,-37 373,18 373,18z"/>
    <path class="fil10" d="M2593 4613c0,0 155,90 434,174 163,49 369,87 511,110 5,20 7,40 7,61 0,23 -3,46 -9,68 250,442 261,1780 261,1780l-486 23c0,0 77,-243 -18,-371 -95,-129 64,-1067 64,-1067 0,0 -172,-80 -697,-108 -491,104 -667,-438 -586,-583 82,-146 519,-87 519,-87z"/>
   </g>
   <path class="fil17" d="M3590 6833l311 198c0,0 411,68 132,153 -280,84 -915,-45 -915,-45 0,0 48,-286 99,-324 52,-38 373,18 373,18z"/>
   <path class="fil18" d="M2506 5388c524,28 697,108 697,108 0,0 -50,912 20,1044 76,141 -67,394 -67,394l486 -24c0,0 0,-15 0,-44 -1,-232 -5,-1311 44,-1455 -36,-147 -156,-258 -305,-281 -142,-23 -348,-61 -511,-110l-8 -3c-274,-83 -426,-171 -426,-171 0,0 -323,-23 -405,123 -10,19 -55,56 -56,86 -11,73 104,423 531,333z"/>
   <path class="fil7" d="M3276 4537l9 192c0,0 43,-1 107,-4 217,-13 679,-56 522,-185 -135,-111 -372,-76 -516,-40 -53,14 -94,27 -111,33 -7,2 -11,4 -11,4z"/>
   <path class="fil7" d="M2043 3226c0,0 62,53 139,113 86,23 187,44 259,58 -22,-85 -2,-177 30,-258 36,-84 84,-162 141,-233l-433 -157c31,89 11,188 -22,273 -29,72 -68,141 -114,204l0 0z"/>
   <path class="fil4" d="M3279 4591l6 138c0,0 43,-1 107,-4l6 -225c-53,13 -94,27 -111,33l-8 58z"/>
   <polygon class="fil8" points="3250,4736 3383,4730 3389,4490 3283,4495 "/>
   <path class="fil9" d="M1986 4983c280,291 803,-55 943,-157 23,-17 36,-27 36,-27 -52,-53 -135,-102 -167,-235 -30,-134 -51,-272 -62,-410 -8,-109 105,-318 72,-422 -32,-104 -167,-138 -224,-232 -14,-25 -29,-48 -44,-68 -104,-145 -286,-243 -286,-243 -388,-133 -418,421 -409,438 10,18 -34,628 141,1356z"/>
   <path class="fil4" d="M1983 4186c0,0 225,627 325,666 56,23 367,-1 621,-26 23,-17 36,-27 36,-27 -52,-53 -94,-162 -126,-294l-327 1c0,0 27,-187 -3,-612 -29,-424 -299,-331 -299,-331 -446,128 -227,623 -227,623z"/>
   <polygon class="fil4" points="3250,4736 3307,4733 3333,4493 3283,4495 "/>
   <path class="fil9" d="M2218 3536c0,0 270,-93 299,331 30,424 3,612 3,612l798 -3 -31 285c0,0 -872,104 -972,64 -99,-39 -324,-666 -324,-666 0,0 -219,-495 227,-623z"/>
   <path class="fil4" d="M2227 2911c15,-62 -51,-64 -72,-124l433 155c-23,6 -47,10 -70,11 -193,131 -221,26 -291,-42z"/>
   <circle class="fil7" transform="matrix(0.391901 -0.0188244 0.0188244 0.391901 2437.82 2679.53)" r="925"/>
   <path class="fil4" d="M2250 3805c0,0 115,544 251,600 135,55 74,67 74,67m-325 -667l0 0 0 0z"/>
   <path class="fil4" d="M2723 4113c0,0 -95,30 -207,-114m207 114l0 0 0 0z"/>
   <circle class="fil16" cx="2001" cy="2174" r="166"/>
   <path class="fil16" d="M1884 2262c-28,-31 -44,-72 -44,-114 0,-42 16,-83 45,-113 -3,2 -6,4 -8,6 -34,32 -53,76 -53,121 0,92 75,167 166,167 43,0 83,-17 114,-46 3,-2 5,-5 7,-7 -29,25 -67,38 -106,38 -45,0 -89,-19 -120,-52l-1 0z"/>
   <path class="fil16" d="M1979 2325c-3,0 -6,0 -10,0 -83,0 -154,-63 -164,-146 0,4 0,7 0,11 5,87 78,155 165,155 92,0 166,-74 166,-166 0,-3 0,-7 0,-10 0,-4 -1,-7 -1,-11 0,1 0,1 0,1 0,87 -68,160 -156,166l0 0z"/>
   <path class="fil4" d="M2572 2319c38,19 83,24 124,36 42,12 84,34 102,73 14,29 12,63 26,92 20,41 67,60 110,77 -37,49 -116,36 -168,2 -51,-33 -95,-83 -155,-96 -10,-2 -19,-3 -29,-3 -51,0 -99,27 -125,72 -16,28 -22,62 -30,94 -21,84 -63,168 -135,216 -73,48 -181,47 -238,-18 -33,-38 -45,-90 -54,-140 -6,-22 -8,-44 -8,-67 0,-1 0,-3 0,-4 3,-59 43,-110 83,-154 47,-52 97,-102 147,-152 44,-42 94,-115 159,-120 76,-6 129,61 191,92z"/>
   <path class="fil16" d="M2561 2308c39,19 83,25 125,37 41,12 84,34 102,73 13,29 12,63 26,91 20,42 66,61 109,77 -37,50 -115,36 -167,3 -51,-34 -96,-83 -156,-96 -9,-2 -18,-3 -28,-3 -51,0 -99,27 -125,71 -17,29 -23,62 -31,94 -20,85 -62,169 -135,216 -72,48 -181,48 -238,-18 -33,-38 -44,-90 -54,-139 -5,-22 -8,-45 -8,-67 0,-2 0,-3 0,-4 4,-60 43,-110 83,-155 48,-52 98,-101 148,-151 43,-43 93,-115 159,-120 75,-6 128,61 190,91z"/>
   <path class="fil1" d="M1594 4614l1007 0c49,0 89,39 89,88l0 6c0,49 -40,89 -89,89l-1007 0c-49,0 -88,-40 -88,-89l0 -6c0,-49 39,-88 88,-88z"/>
   <path class="fil4" d="M1506 4707l0 15c0,41 34,75 75,75l1033 0c42,0 76,-34 76,-76l0 -14 -1184 0z"/>
   <rect class="fil1" x="3590" y="4804" width="204" height="2593"/>
   <polygon class="fil4" points="3590,4973 3794,4973 3794,4804 3590,4804 "/>
   <rect class="fil1" x="3493" y="4618" width="5382" height="336"/>
  </g>
 </g>
</svg>
